<svg xmlns="http://www.w3.org/2000/svg" width="1200" height="630" viewBox="0 0 1200 630" role="img" aria-labelledby="title desc">
  <title id="title">WIBO Genuine Auto Parts</title>
  <desc id="desc">Open graph preview for WIBO genuine auto parts in Kenya.</desc>
  <defs>
    <linearGradient id="bg" x1="0" y1="0" x2="1" y2="1">
      <stop offset="0" stop-color="#08111f"/>
      <stop offset="0.62" stop-color="#101827"/>
      <stop offset="1" stop-color="#1f2937"/>
    </linearGradient>
    <linearGradient id="gold" x1="0" y1="0" x2="1" y2="0">
      <stop offset="0" stop-color="#f5c451"/>
      <stop offset="1" stop-color="#d99219"/>
    </linearGradient>
  </defs>
  <rect width="1200" height="630" fill="url(#bg)"/>
  <circle cx="1030" cy="115" r="210" fill="#f5c451" opacity="0.08"/>
  <circle cx="1040" cy="530" r="280" fill="#22c55e" opacity="0.06"/>
  <g fill="none" stroke="#f5c451" stroke-width="4" opacity="0.24">
    <path d="M760 348h225l58 76h64c20 0 37 17 37 37v38H704v-62c0-49 39-89 88-89Z"/>
    <circle cx="801" cy="502" r="42"/>
    <circle cx="1045" cy="502" r="42"/>
  </g>
  <g transform="translate(84 84)">
    <rect width="92" height="92" rx="22" fill="url(#gold)"/>
    <path d="M34 62 62 34M31 31l30 30" stroke="#08111f" stroke-width="10" stroke-linecap="round"/>
  </g>
  <text x="84" y="245" fill="#f8fafc" font-family="Arial, Helvetica, sans-serif" font-size="96" font-weight="800" letter-spacing="2">WIBO</text>
  <text x="88" y="330" fill="#f5c451" font-family="Arial, Helvetica, sans-serif" font-size="48" font-weight="700">Genuine Auto Parts</text>
  <text x="88" y="398" fill="#cbd5e1" font-family="Arial, Helvetica, sans-serif" font-size="34">Fitment guaranteed. Pay with M-Pesa.</text>
  <text x="88" y="462" fill="#94a3b8" font-family="Arial, Helvetica, sans-serif" font-size="28">Nairobi same-day delivery available.</text>
</svg>
